<svg width="16" height="16" viewBox="0 0 16 16" fill="none" xmlns="http://www.w3.org/2000/svg">
<g id="Frame">
<path id="Vector" d="M15.7448 5.0574C15.7523 5.18814 15.7071 5.31884 15.6166 5.42189L8.1156 13.9937L13.7263 5.05737H15.7448L15.7448 5.0574Z" fill="#2EB9EF"/>
<path id="Vector_2" d="M15.7448 5.05744H13.7263L12.8516 1.86499C13.0326 1.87754 13.201 1.96304 13.3217 2.1013L15.6192 4.73321C15.6997 4.82622 15.7424 4.94187 15.7449 5.05749L15.7448 5.05744Z" fill="#44C9F2"/>
<path id="Vector_3" d="M12.8515 1.865L13.7262 5.05745H11.1295L10.6167 3.91622L12.7911 1.85999C12.8112 1.85999 12.8313 1.85999 12.8514 1.86505L12.8515 1.865Z" fill="#2EB9EF"/>
<path id="Vector_4" d="M13.7263 5.05747L8.11563 13.9938L11.1296 5.05747H13.7263ZM12.7912 1.85999L10.6168 3.91622L8.1156 1.85999H12.7912Z" fill="#46D3F9"/>
<path id="Vector_5" d="M10.6168 3.91613L11.1296 5.05736H8.1156V1.85986L10.6168 3.91613Z" fill="#5CD6F7"/>
<path id="Vector_6" d="M11.1296 5.05737L8.1156 13.9937V5.05737H8.22874H11.1296Z" fill="#76E5FF"/>
<path id="Vector_7" d="M8.11311 5.05737V13.9937L5.09912 5.05737H7.99996H8.11311Z" fill="#3FC1EF"/>
<path id="Vector_8" d="M8.11311 1.85999V5.05749H5.09912L5.61195 3.91625L8.11311 1.85999Z" fill="#76E5FF"/>
<path id="Vector_9" d="M5.09919 5.05737L8.11317 13.9937L2.5 5.05737H5.09919Z" fill="#46D3F9"/>
<path id="Vector_10" d="M2.49995 5.05737L8.11312 13.9937L0.60959 5.42189C0.519106 5.31884 0.473856 5.18812 0.481403 5.0574H2.49992L2.49995 5.05737Z" fill="#2EB9EF"/>
<path id="Vector_11" d="M8.11312 1.85999L5.61195 3.91622L3.43506 1.85999H8.11312Z" fill="#46D3F9"/>
<path id="Vector_12" d="M5.61193 3.91614L5.0991 5.05738H2.49988L3.37464 1.86493C3.39474 1.85986 3.41483 1.85986 3.43497 1.85986L5.61186 3.9161L5.61193 3.91614Z" fill="#2EB9EF"/>
<path id="Vector_13" d="M3.37473 1.86492L2.49996 5.05737H0.481445C0.483945 4.94176 0.529211 4.8261 0.609633 4.73309L2.90721 2.10118C3.0279 1.96295 3.19627 1.87745 3.37476 1.86487L3.37473 1.86492Z" fill="#44C9F2"/>
</g>
</svg>
