<svg width="20" height="20" viewBox="0 0 20 20" fill="none" xmlns="http://www.w3.org/2000/svg">
<g id="Frame" clip-path="url(#clip0_4_19970)">
<path id="Vector" d="M6.79154 6.89502C6.46952 6.89502 6.20996 7.15653 6.20996 7.4766C6.20996 7.79666 6.46952 8.06012 6.79154 8.06012C7.11355 8.06012 7.37311 7.79861 7.37311 7.47855C7.37311 7.15849 7.11355 6.89502 6.79154 6.89502ZM11.2841 9.99611C11.0168 9.99611 10.7982 10.2127 10.7982 10.4821C10.7982 10.7494 11.0148 10.968 11.2841 10.968C11.5515 10.968 11.7701 10.7494 11.7701 10.4821C11.7701 10.2147 11.5515 9.99611 11.2841 9.99611ZM9.78334 8.06012C10.1054 8.06012 10.3649 7.79861 10.3649 7.47855C10.3649 7.15849 10.1034 6.89697 9.78334 6.89697C9.46133 6.89697 9.20176 7.15849 9.20176 7.47855C9.20176 7.79861 9.46133 8.06012 9.78334 8.06012ZM13.6417 9.99221C13.3743 9.99221 13.1557 10.2088 13.1557 10.4782C13.1557 10.7455 13.3723 10.9641 13.6417 10.9641C13.909 10.9641 14.1276 10.7475 14.1276 10.4782C14.1257 10.2108 13.909 9.99221 13.6417 9.99221Z" fill="#00C800"/>
<path id="Vector_2" d="M9.99219 0.015625C4.47502 0.015625 0 4.48869 0 10.0078C0 15.5269 4.47307 20 9.99219 20C15.5113 20 19.9844 15.5269 19.9844 10.0078C19.9844 4.48869 15.5113 0.015625 9.99219 0.015625ZM8.2299 12.4083C7.69516 12.4083 7.26581 12.299 6.72912 12.1936L5.23224 12.945L5.65964 11.6569C4.58626 10.9075 3.94614 9.94146 3.94614 8.76465C3.94614 6.72718 5.87432 5.12101 8.2299 5.12101C10.3357 5.12101 12.1819 6.40321 12.5527 8.12843C12.4161 8.11281 12.2795 8.10306 12.1409 8.10306C10.1073 8.10306 8.49922 9.6214 8.49922 11.493C8.49922 11.8052 8.54801 12.1038 8.63193 12.3907C8.49922 12.4024 8.36456 12.4083 8.2299 12.4083ZM14.5492 13.9091L14.8712 14.9785L13.6963 14.3365C13.2689 14.4438 12.8376 14.5511 12.4102 14.5511C10.3728 14.5511 8.76659 13.1577 8.76659 11.4422C8.76659 9.73069 10.3708 8.33335 12.4102 8.33335C14.3345 8.33335 16.048 9.72874 16.048 11.4422C16.05 12.4083 15.4079 13.2631 14.5492 13.9091Z" fill="#00C800"/>
</g>
<defs>
<clipPath id="clip0_4_19970">
<rect width="20" height="20" fill="white"/>
</clipPath>
</defs>
</svg>
